<svg width="1080" height="1080" viewBox="0 0 1080 1080" fill="none" xmlns="http://www.w3.org/2000/svg">
<rect width="1080" height="1080" fill="#89BAAD" fill-opacity="0.25"/>
<path fill-rule="evenodd" clip-rule="evenodd" d="M1080 0H0V1080H1080V0ZM37 17C25.9543 17 17 25.9543 17 37V1043C17 1054.05 25.9543 1063 37 1063H1043C1054.05 1063 1063 1054.05 1063 1043V37C1063 25.9543 1054.05 17 1043 17H37Z" fill="white"/>
<rect x="64" y="957" width="498" height="52" fill="black"/>
<path d="M112.716 971.368L105.84 997H101.664L96.948 981.448L92.232 997H88.056L81.216 971.368H86.436L90.396 987.532L95.076 971.368H98.82L103.5 987.532L107.496 971.368H112.716ZM135.71 997H130.49L128.978 992.464H119.87L118.322 997H113.102L122.426 971.368H126.35L135.71 997ZM127.646 988.252L124.514 978.928L121.274 988.252H127.646ZM157.551 997H152.547V986.272H143.871V997H138.867V971.368H143.871V981.844H152.547V971.368H157.551V997ZM180.143 997H163.511V971.368H168.515V992.536H180.143V997ZM201.102 997H184.218V971.368H201.102V975.832H189.222V981.844H199.338V986.308H189.222V992.536H201.102V997ZM225.635 997H221.171L211.019 981.268V997H206.015V971.368H210.479L220.631 987.064V971.368H225.635V997ZM249.861 986.488C249.861 989.992 249.045 992.596 247.413 994.3C245.541 996.244 243.129 997.216 240.177 997.216C237.441 997.216 235.137 996.28 233.265 994.408C232.113 993.256 231.369 991.78 231.033 989.98C230.841 988.924 230.745 986.992 230.745 984.184C230.745 981.376 230.841 979.444 231.033 978.388C231.369 976.588 232.113 975.112 233.265 973.96C235.137 972.088 237.441 971.152 240.177 971.152C242.961 971.152 245.229 971.98 246.981 973.636C248.493 975.1 249.441 977.008 249.825 979.36H244.785C244.185 976.864 242.649 975.616 240.177 975.616C238.857 975.616 237.789 976.072 236.973 976.984C236.349 977.704 235.965 978.856 235.821 980.44C235.773 980.872 235.749 982.12 235.749 984.184C235.749 986.248 235.773 987.496 235.821 987.928C235.965 989.536 236.349 990.7 236.973 991.42C237.765 992.308 238.833 992.752 240.177 992.752C241.689 992.752 242.877 992.272 243.741 991.312C244.509 990.472 244.893 989.332 244.893 987.892V986.92H240.177V982.744H249.861V986.488ZM274.357 997H268.561L263.557 986.776H259.957V997H254.953V971.368H264.997C267.541 971.368 269.581 972.136 271.117 973.672C272.581 975.136 273.313 976.984 273.313 979.216C273.313 980.92 272.845 982.384 271.909 983.608C271.069 984.688 269.977 985.468 268.633 985.948L274.357 997ZM268.309 979.216C268.309 978.208 267.973 977.392 267.301 976.768C266.629 976.144 265.753 975.832 264.673 975.832H259.957V982.6H264.673C265.753 982.6 266.629 982.288 267.301 981.664C267.973 981.04 268.309 980.224 268.309 979.216ZM298.308 997H293.088L291.576 992.464H282.468L280.92 997H275.7L285.024 971.368H288.948L298.308 997ZM290.244 988.252L287.112 978.928L283.872 988.252H290.244ZM319.933 988.216C319.933 990.88 319.033 993.052 317.233 994.732C315.433 996.388 313.189 997.216 310.501 997.216C307.813 997.216 305.569 996.388 303.769 994.732C301.969 993.052 301.069 990.88 301.069 988.216V971.368H306.073V988.036C306.073 989.5 306.469 990.652 307.261 991.492C308.053 992.332 309.133 992.752 310.501 992.752C311.869 992.752 312.949 992.332 313.741 991.492C314.557 990.652 314.965 989.5 314.965 988.036V971.368H319.933V988.216ZM344.087 989.62C344.087 991.948 343.367 993.76 341.927 995.056C340.487 996.352 338.591 997 336.239 997H325.511V971.368H335.807C338.279 971.368 340.211 972.016 341.603 973.312C343.019 974.608 343.727 976.36 343.727 978.568C343.727 979.864 343.367 981.028 342.647 982.06C342.047 982.876 341.351 983.476 340.559 983.86C342.911 984.964 344.087 986.884 344.087 989.62ZM338.723 978.784C338.723 977.896 338.435 977.188 337.859 976.66C337.283 976.108 336.467 975.832 335.411 975.832H330.515V981.736H335.411C336.467 981.736 337.283 981.472 337.859 980.944C338.435 980.392 338.723 979.672 338.723 978.784ZM339.083 989.368C339.083 988.456 338.795 987.712 338.219 987.136C337.643 986.536 336.815 986.236 335.735 986.236H330.515V992.536H335.735C336.815 992.536 337.643 992.236 338.219 991.636C338.795 991.036 339.083 990.28 339.083 989.368ZM367.675 988.216C367.675 990.88 366.775 993.052 364.975 994.732C363.175 996.388 360.931 997.216 358.243 997.216C355.555 997.216 353.311 996.388 351.511 994.732C349.711 993.052 348.811 990.88 348.811 988.216V971.368H353.815V988.036C353.815 989.5 354.211 990.652 355.003 991.492C355.795 992.332 356.875 992.752 358.243 992.752C359.611 992.752 360.691 992.332 361.483 991.492C362.299 990.652 362.707 989.5 362.707 988.036V971.368H367.675V988.216ZM390.138 997H373.254V971.368H390.138V975.832H378.258V981.844H388.374V986.308H378.258V992.536H390.138V997ZM414.671 997H410.207L400.055 981.268V997H395.051V971.368H399.515L409.667 987.064V971.368H414.671V997ZM439.256 984.076C439.256 986.932 439.184 988.804 439.04 989.692C438.728 991.66 437.936 993.28 436.664 994.552C435.032 996.184 432.776 997 429.896 997H420.644V971.368H429.896C432.776 971.368 435.032 972.184 436.664 973.816C437.936 975.088 438.728 976.672 439.04 978.568C439.184 979.432 439.256 981.268 439.256 984.076ZM434.252 984.076C434.252 982.012 434.192 980.56 434.072 979.72C433.928 978.736 433.628 977.968 433.172 977.416C432.308 976.36 431.06 975.832 429.428 975.832H425.648V992.536H429.428C431.06 992.536 432.308 992.008 433.172 990.952C433.628 990.4 433.928 989.596 434.072 988.54C434.192 987.652 434.252 986.164 434.252 984.076ZM461.259 997H444.375V971.368H461.259V975.832H449.379V981.844H459.495V986.308H449.379V992.536H461.259V997ZM485.792 997H481.328L471.176 981.268V997H466.172V971.368H470.636L480.788 987.064V971.368H485.792V997ZM496.589 997H491.225V991.672H496.589V997ZM520.031 989.116C519.599 991.732 518.507 993.748 516.755 995.164C515.099 996.532 513.047 997.216 510.599 997.216C507.863 997.216 505.559 996.28 503.687 994.408C502.535 993.256 501.791 991.78 501.455 989.98C501.263 988.924 501.167 986.992 501.167 984.184C501.167 981.376 501.263 979.444 501.455 978.388C501.791 976.588 502.535 975.112 503.687 973.96C505.559 972.088 507.863 971.152 510.599 971.152C513.071 971.152 515.147 971.848 516.827 973.24C518.531 974.632 519.599 976.636 520.031 979.252H514.955C514.355 976.828 512.915 975.616 510.635 975.616C509.123 975.616 507.959 976.18 507.143 977.308C506.495 978.22 506.171 980.512 506.171 984.184C506.171 986.176 506.195 987.424 506.243 987.928C506.411 989.536 506.807 990.7 507.431 991.42C508.223 992.308 509.291 992.752 510.635 992.752C512.915 992.752 514.355 991.54 514.955 989.116H520.031ZM543.039 997H538.035V986.272H529.359V997H524.355V971.368H529.359V981.844H538.035V971.368H543.039V997Z" fill="white"/>
<rect x="64" y="838" width="394" height="103" fill="white"/>
<rect x="64" y="719" width="451" height="103" fill="white"/>
<path d="M165.576 738.648L147.24 807H136.104L123.528 765.528L110.952 807H99.816L81.576 738.648H95.496L106.056 781.752L118.536 738.648H128.52L141 781.752L151.656 738.648H165.576ZM187.437 807H174.093V738.648H187.437V807ZM255.087 807H239.631L226.287 779.736H216.687V807H203.343V738.648H230.127C236.911 738.648 242.351 740.696 246.447 744.792C250.351 748.696 252.303 753.624 252.303 759.576C252.303 764.12 251.055 768.024 248.559 771.288C246.319 774.168 243.407 776.248 239.823 777.528L255.087 807ZM238.959 759.576C238.959 756.888 238.063 754.712 236.271 753.048C234.479 751.384 232.143 750.552 229.263 750.552H216.687V768.6H229.263C232.143 768.6 234.479 767.768 236.271 766.104C238.063 764.44 238.959 762.264 238.959 759.576ZM332.628 786.84C332.628 793.304 330.228 798.392 325.428 802.104C320.692 805.752 314.644 807.576 307.284 807.576C296.596 807.576 288.276 804.568 282.324 798.552L290.964 789.912C294.804 793.752 300.308 795.672 307.476 795.672C315.54 795.672 319.572 792.856 319.572 787.224C319.572 784.664 318.9 782.776 317.556 781.56C316.212 780.28 314.164 779.448 311.412 779.064L303.156 777.912C291.06 776.248 285.012 769.88 285.012 758.808C285.012 752.6 287.156 747.608 291.444 743.832C295.732 739.992 301.524 738.072 308.82 738.072C318.036 738.072 325.396 740.728 330.9 746.04L322.452 754.392C319.188 751.256 314.516 749.688 308.436 749.688C305.044 749.688 302.42 750.52 300.564 752.184C298.772 753.784 297.876 755.832 297.876 758.328C297.876 760.312 298.58 761.976 299.988 763.32C301.46 764.664 303.54 765.528 306.228 765.912L314.292 767.064C320.116 767.896 324.468 769.656 327.348 772.344C330.868 775.672 332.628 780.504 332.628 786.84ZM358.531 807H345.187V738.648H358.531V807ZM426.757 807H414.853L387.781 765.048V807H374.437V738.648H386.341L413.413 780.504V738.648H426.757V807ZM492.319 772.536C492.319 780.152 492.127 785.144 491.743 787.512C490.911 792.76 488.799 797.08 485.407 800.472C481.055 804.824 475.039 807 467.359 807H442.687V738.648H467.359C475.039 738.648 481.055 740.824 485.407 745.176C488.799 748.568 490.911 752.792 491.743 757.848C492.127 760.152 492.319 765.048 492.319 772.536ZM478.975 772.536C478.975 767.032 478.815 763.16 478.495 760.92C478.111 758.296 477.311 756.248 476.095 754.776C473.791 751.96 470.463 750.552 466.111 750.552H456.031V795.096H466.111C470.463 795.096 473.791 793.688 476.095 790.872C477.311 789.4 478.111 787.256 478.495 784.44C478.815 782.072 478.975 778.104 478.975 772.536ZM138.504 905.32C138.504 911.528 136.584 916.36 132.744 919.816C128.904 923.272 123.848 925 117.576 925H88.968V856.648H116.424C123.016 856.648 128.168 858.376 131.88 861.832C135.656 865.288 137.544 869.96 137.544 875.848C137.544 879.304 136.584 882.408 134.664 885.16C133.064 887.336 131.208 888.936 129.096 889.96C135.368 892.904 138.504 898.024 138.504 905.32ZM124.2 876.424C124.2 874.056 123.432 872.168 121.896 870.76C120.36 869.288 118.184 868.552 115.368 868.552H102.312V884.296H115.368C118.184 884.296 120.36 883.592 121.896 882.184C123.432 880.712 124.2 878.792 124.2 876.424ZM125.16 904.648C125.16 902.216 124.392 900.232 122.856 898.696C121.32 897.096 119.112 896.296 116.232 896.296H102.312V913.096H116.232C119.112 913.096 121.32 912.296 122.856 910.696C124.392 909.096 125.16 907.08 125.16 904.648ZM197.18 925H152.156V856.648H197.18V868.552H165.5V884.584H192.476V896.488H165.5V913.096H197.18V925ZM262.025 925H246.569L233.225 897.736H223.625V925H210.281V856.648H237.065C243.849 856.648 249.289 858.696 253.385 862.792C257.289 866.696 259.241 871.624 259.241 877.576C259.241 882.12 257.993 886.024 255.497 889.288C253.257 892.168 250.345 894.248 246.761 895.528L262.025 925ZM245.897 877.576C245.897 874.888 245.001 872.712 243.209 871.048C241.417 869.384 239.081 868.552 236.201 868.552H223.625V886.6H236.201C239.081 886.6 241.417 885.768 243.209 884.104C245.001 882.44 245.897 880.264 245.897 877.576ZM318.117 925H273.093V856.648H318.117V868.552H286.437V884.584H313.413V896.488H286.437V913.096H318.117V925ZM344.562 925H331.218V856.648H344.562V925ZM404.436 868.552H386.58V925H373.236V868.552H355.38V856.648H404.436V868.552ZM433.456 856.648L430.48 903.592H421.072L418.096 856.648H433.456ZM432.4 925H419.152V912.232H432.4V925Z" fill="black"/>
</svg>
